<mxfile host="app.diagrams.net" agent="Mozilla/5.0 (Windows NT 10.0; Win64; x64) AppleWebKit/537.36 (KHTML, like Gecko) Chrome/128.0.0.0 Safari/537.36 Edg/128.0.0.0" version="24.7.12">
  <diagram name="第 1 页" id="vfp6cNeyJ0LO8MkwWbuL">
    <mxGraphModel dx="2221" dy="607" grid="1" gridSize="10" guides="1" tooltips="1" connect="1" arrows="1" fold="1" page="1" pageScale="1" pageWidth="827" pageHeight="1169" math="0" shadow="0">
      <root>
        <mxCell id="0" />
        <mxCell id="1" parent="0" />
        <mxCell id="-NNSqbGW-Lkm0in-DwpT-1" value="panel" style="shape=umlLifeline;perimeter=lifelinePerimeter;whiteSpace=wrap;html=1;container=1;dropTarget=0;collapsible=0;recursiveResize=0;outlineConnect=0;portConstraint=eastwest;newEdgeStyle={&quot;curved&quot;:0,&quot;rounded&quot;:0};" vertex="1" parent="1">
          <mxGeometry x="90" y="30" width="100" height="470" as="geometry" />
        </mxCell>
        <mxCell id="-NNSqbGW-Lkm0in-DwpT-2" value="Actor" style="shape=umlActor;verticalLabelPosition=bottom;verticalAlign=top;html=1;" vertex="1" parent="1">
          <mxGeometry x="-60" y="150" width="30" height="60" as="geometry" />
        </mxCell>
        <mxCell id="-NNSqbGW-Lkm0in-DwpT-3" value="" style="endArrow=open;endFill=1;endSize=12;html=1;rounded=0;" edge="1" parent="1">
          <mxGeometry width="160" relative="1" as="geometry">
            <mxPoint x="-30" y="179.5" as="sourcePoint" />
            <mxPoint x="130" y="179.5" as="targetPoint" />
          </mxGeometry>
        </mxCell>
        <mxCell id="-NNSqbGW-Lkm0in-DwpT-4" value="作业指令" style="text;html=1;align=center;verticalAlign=middle;resizable=0;points=[];autosize=1;strokeColor=none;fillColor=none;" vertex="1" parent="1">
          <mxGeometry y="158" width="70" height="30" as="geometry" />
        </mxCell>
        <mxCell id="-NNSqbGW-Lkm0in-DwpT-5" value="PUS" style="shape=umlLifeline;perimeter=lifelinePerimeter;whiteSpace=wrap;html=1;container=1;dropTarget=0;collapsible=0;recursiveResize=0;outlineConnect=0;portConstraint=eastwest;newEdgeStyle={&quot;curved&quot;:0,&quot;rounded&quot;:0};" vertex="1" parent="1">
          <mxGeometry x="260" y="30" width="100" height="470" as="geometry" />
        </mxCell>
        <mxCell id="-NNSqbGW-Lkm0in-DwpT-6" value="" style="endArrow=open;endFill=1;endSize=12;html=1;rounded=0;" edge="1" parent="1">
          <mxGeometry width="160" relative="1" as="geometry">
            <mxPoint x="150" y="180" as="sourcePoint" />
            <mxPoint x="310" y="180" as="targetPoint" />
          </mxGeometry>
        </mxCell>
        <mxCell id="-NNSqbGW-Lkm0in-DwpT-7" value="设置account、&lt;br&gt;password、access启动作业" style="text;html=1;align=center;verticalAlign=middle;resizable=0;points=[];autosize=1;strokeColor=none;fillColor=none;" vertex="1" parent="1">
          <mxGeometry x="135" y="140" width="170" height="40" as="geometry" />
        </mxCell>
        <mxCell id="-NNSqbGW-Lkm0in-DwpT-8" value="Job" style="shape=umlLifeline;perimeter=lifelinePerimeter;whiteSpace=wrap;html=1;container=1;dropTarget=0;collapsible=0;recursiveResize=0;outlineConnect=0;portConstraint=eastwest;newEdgeStyle={&quot;curved&quot;:0,&quot;rounded&quot;:0};" vertex="1" parent="1">
          <mxGeometry x="430" y="30" width="100" height="470" as="geometry" />
        </mxCell>
        <mxCell id="-NNSqbGW-Lkm0in-DwpT-9" value="" style="endArrow=open;endFill=1;endSize=12;html=1;rounded=0;" edge="1" parent="1">
          <mxGeometry width="160" relative="1" as="geometry">
            <mxPoint x="320" y="179" as="sourcePoint" />
            <mxPoint x="480" y="179" as="targetPoint" />
          </mxGeometry>
        </mxCell>
        <mxCell id="-NNSqbGW-Lkm0in-DwpT-10" value="请求job，job数据解析等" style="edgeLabel;html=1;align=center;verticalAlign=middle;resizable=0;points=[];" vertex="1" connectable="0" parent="-NNSqbGW-Lkm0in-DwpT-9">
          <mxGeometry x="-0.108" y="7" relative="1" as="geometry">
            <mxPoint y="-12" as="offset" />
          </mxGeometry>
        </mxCell>
        <mxCell id="-NNSqbGW-Lkm0in-DwpT-11" value="FU" style="shape=umlLifeline;perimeter=lifelinePerimeter;whiteSpace=wrap;html=1;container=1;dropTarget=0;collapsible=0;recursiveResize=0;outlineConnect=0;portConstraint=eastwest;newEdgeStyle={&quot;curved&quot;:0,&quot;rounded&quot;:0};" vertex="1" parent="1">
          <mxGeometry x="590" y="30" width="100" height="470" as="geometry" />
        </mxCell>
        <mxCell id="-NNSqbGW-Lkm0in-DwpT-24" value="" style="html=1;points=[[0,0,0,0,5],[0,1,0,0,-5],[1,0,0,0,5],[1,1,0,0,-5]];perimeter=orthogonalPerimeter;outlineConnect=0;targetShapes=umlLifeline;portConstraint=eastwest;newEdgeStyle={&quot;curved&quot;:0,&quot;rounded&quot;:0};" vertex="1" parent="-NNSqbGW-Lkm0in-DwpT-11">
          <mxGeometry x="45" y="230" width="10" height="80" as="geometry" />
        </mxCell>
        <mxCell id="-NNSqbGW-Lkm0in-DwpT-29" value="" style="html=1;points=[[0,0,0,0,5],[0,1,0,0,-5],[1,0,0,0,5],[1,1,0,0,-5]];perimeter=orthogonalPerimeter;outlineConnect=0;targetShapes=umlLifeline;portConstraint=eastwest;newEdgeStyle={&quot;curved&quot;:0,&quot;rounded&quot;:0};" vertex="1" parent="-NNSqbGW-Lkm0in-DwpT-11">
          <mxGeometry x="45" y="340" width="10" height="80" as="geometry" />
        </mxCell>
        <mxCell id="-NNSqbGW-Lkm0in-DwpT-12" value="" style="endArrow=open;endFill=1;endSize=12;html=1;rounded=0;" edge="1" parent="1">
          <mxGeometry width="160" relative="1" as="geometry">
            <mxPoint x="480" y="180" as="sourcePoint" />
            <mxPoint x="640" y="180" as="targetPoint" />
          </mxGeometry>
        </mxCell>
        <mxCell id="-NNSqbGW-Lkm0in-DwpT-13" value="获取资源，业务逻辑" style="edgeLabel;html=1;align=center;verticalAlign=middle;resizable=0;points=[];" vertex="1" connectable="0" parent="-NNSqbGW-Lkm0in-DwpT-12">
          <mxGeometry x="-0.108" y="7" relative="1" as="geometry">
            <mxPoint y="-13" as="offset" />
          </mxGeometry>
        </mxCell>
        <mxCell id="-NNSqbGW-Lkm0in-DwpT-14" value="engine" style="shape=umlLifeline;perimeter=lifelinePerimeter;whiteSpace=wrap;html=1;container=1;dropTarget=0;collapsible=0;recursiveResize=0;outlineConnect=0;portConstraint=eastwest;newEdgeStyle={&quot;curved&quot;:0,&quot;rounded&quot;:0};" vertex="1" parent="1">
          <mxGeometry x="760" y="30" width="100" height="470" as="geometry" />
        </mxCell>
        <mxCell id="-NNSqbGW-Lkm0in-DwpT-15" value="" style="endArrow=open;endFill=1;endSize=12;html=1;rounded=0;" edge="1" parent="1">
          <mxGeometry width="160" relative="1" as="geometry">
            <mxPoint x="640" y="180" as="sourcePoint" />
            <mxPoint x="800" y="180" as="targetPoint" />
          </mxGeometry>
        </mxCell>
        <mxCell id="-NNSqbGW-Lkm0in-DwpT-16" value="启动引擎" style="text;html=1;align=center;verticalAlign=middle;resizable=0;points=[];autosize=1;strokeColor=none;fillColor=none;" vertex="1" parent="1">
          <mxGeometry x="665" y="148" width="70" height="30" as="geometry" />
        </mxCell>
        <mxCell id="-NNSqbGW-Lkm0in-DwpT-17" value="" style="html=1;points=[[0,0,0,0,5],[0,1,0,0,-5],[1,0,0,0,5],[1,1,0,0,-5]];perimeter=orthogonalPerimeter;outlineConnect=0;targetShapes=umlLifeline;portConstraint=eastwest;newEdgeStyle={&quot;curved&quot;:0,&quot;rounded&quot;:0};" vertex="1" parent="1">
          <mxGeometry x="380" y="260" width="10" height="80" as="geometry" />
        </mxCell>
        <mxCell id="-NNSqbGW-Lkm0in-DwpT-18" value="生成session" style="html=1;verticalAlign=bottom;endArrow=block;curved=0;rounded=0;entryX=0;entryY=0;entryDx=0;entryDy=5;" edge="1" target="-NNSqbGW-Lkm0in-DwpT-17" parent="1">
          <mxGeometry relative="1" as="geometry">
            <mxPoint x="310" y="265" as="sourcePoint" />
          </mxGeometry>
        </mxCell>
        <mxCell id="-NNSqbGW-Lkm0in-DwpT-19" value="return" style="html=1;verticalAlign=bottom;endArrow=open;dashed=1;endSize=8;curved=0;rounded=0;exitX=0;exitY=1;exitDx=0;exitDy=-5;" edge="1" source="-NNSqbGW-Lkm0in-DwpT-17" parent="1">
          <mxGeometry relative="1" as="geometry">
            <mxPoint x="310" y="335" as="targetPoint" />
          </mxGeometry>
        </mxCell>
        <mxCell id="-NNSqbGW-Lkm0in-DwpT-20" value="session管理" style="text;html=1;align=center;verticalAlign=middle;resizable=0;points=[];autosize=1;strokeColor=none;fillColor=none;" vertex="1" parent="1">
          <mxGeometry x="345" y="278" width="90" height="30" as="geometry" />
        </mxCell>
        <mxCell id="-NNSqbGW-Lkm0in-DwpT-21" value="状态管理" style="html=1;points=[[0,0,0,0,5],[0,1,0,0,-5],[1,0,0,0,5],[1,1,0,0,-5]];perimeter=orthogonalPerimeter;outlineConnect=0;targetShapes=umlLifeline;portConstraint=eastwest;newEdgeStyle={&quot;curved&quot;:0,&quot;rounded&quot;:0};" vertex="1" parent="1">
          <mxGeometry x="380" y="370" width="10" height="80" as="geometry" />
        </mxCell>
        <mxCell id="-NNSqbGW-Lkm0in-DwpT-22" value="状态变化" style="html=1;verticalAlign=bottom;endArrow=block;curved=0;rounded=0;entryX=0;entryY=0;entryDx=0;entryDy=5;" edge="1" target="-NNSqbGW-Lkm0in-DwpT-21" parent="1">
          <mxGeometry relative="1" as="geometry">
            <mxPoint x="310" y="375" as="sourcePoint" />
          </mxGeometry>
        </mxCell>
        <mxCell id="-NNSqbGW-Lkm0in-DwpT-23" value="" style="html=1;verticalAlign=bottom;endArrow=open;dashed=1;endSize=8;curved=0;rounded=0;exitX=0;exitY=1;exitDx=0;exitDy=-5;" edge="1" source="-NNSqbGW-Lkm0in-DwpT-21" parent="1">
          <mxGeometry relative="1" as="geometry">
            <mxPoint x="310" y="445" as="targetPoint" />
          </mxGeometry>
        </mxCell>
        <mxCell id="-NNSqbGW-Lkm0in-DwpT-25" value="resource flow&lt;br&gt;control flow" style="html=1;verticalAlign=bottom;endArrow=block;curved=0;rounded=0;entryX=0;entryY=0;entryDx=0;entryDy=5;" edge="1" target="-NNSqbGW-Lkm0in-DwpT-24" parent="1" source="-NNSqbGW-Lkm0in-DwpT-8">
          <mxGeometry relative="1" as="geometry">
            <mxPoint x="565" y="265" as="sourcePoint" />
          </mxGeometry>
        </mxCell>
        <mxCell id="-NNSqbGW-Lkm0in-DwpT-26" value="return" style="html=1;verticalAlign=bottom;endArrow=open;dashed=1;endSize=8;curved=0;rounded=0;exitX=0;exitY=1;exitDx=0;exitDy=-5;" edge="1" source="-NNSqbGW-Lkm0in-DwpT-24" parent="1" target="-NNSqbGW-Lkm0in-DwpT-8">
          <mxGeometry relative="1" as="geometry">
            <mxPoint x="565" y="335" as="targetPoint" />
          </mxGeometry>
        </mxCell>
        <mxCell id="-NNSqbGW-Lkm0in-DwpT-27" value="业务" style="text;html=1;align=center;verticalAlign=middle;resizable=0;points=[];autosize=1;strokeColor=none;fillColor=none;" vertex="1" parent="1">
          <mxGeometry x="625" y="288" width="50" height="30" as="geometry" />
        </mxCell>
        <mxCell id="-NNSqbGW-Lkm0in-DwpT-30" value="添加线程" style="html=1;verticalAlign=bottom;endArrow=block;curved=0;rounded=0;entryX=0;entryY=0;entryDx=0;entryDy=5;" edge="1" target="-NNSqbGW-Lkm0in-DwpT-29" parent="1" source="-NNSqbGW-Lkm0in-DwpT-8">
          <mxGeometry x="0.0032" relative="1" as="geometry">
            <mxPoint x="565" y="375" as="sourcePoint" />
            <mxPoint as="offset" />
          </mxGeometry>
        </mxCell>
        <mxCell id="-NNSqbGW-Lkm0in-DwpT-31" value="return" style="html=1;verticalAlign=bottom;endArrow=open;dashed=1;endSize=8;curved=0;rounded=0;exitX=0;exitY=1;exitDx=0;exitDy=-5;" edge="1" source="-NNSqbGW-Lkm0in-DwpT-29" parent="1" target="-NNSqbGW-Lkm0in-DwpT-8">
          <mxGeometry relative="1" as="geometry">
            <mxPoint x="565" y="445" as="targetPoint" />
          </mxGeometry>
        </mxCell>
        <mxCell id="-NNSqbGW-Lkm0in-DwpT-32" value="处理" style="text;html=1;align=center;verticalAlign=middle;resizable=0;points=[];autosize=1;strokeColor=none;fillColor=none;" vertex="1" parent="1">
          <mxGeometry x="625" y="398" width="50" height="30" as="geometry" />
        </mxCell>
        <mxCell id="-NNSqbGW-Lkm0in-DwpT-33" value="" style="endArrow=open;endFill=1;endSize=12;html=1;rounded=0;" edge="1" parent="1">
          <mxGeometry width="160" relative="1" as="geometry">
            <mxPoint x="810" y="490" as="sourcePoint" />
            <mxPoint x="640" y="490" as="targetPoint" />
          </mxGeometry>
        </mxCell>
        <mxCell id="-NNSqbGW-Lkm0in-DwpT-34" value="loop" style="shape=umlFrame;whiteSpace=wrap;html=1;pointerEvents=0;" vertex="1" parent="1">
          <mxGeometry x="460" y="350" width="200" height="130" as="geometry" />
        </mxCell>
      </root>
    </mxGraphModel>
  </diagram>
</mxfile>
